<?xml version="1.0" encoding="utf-8"?>
<!-- Generator: Adobe Illustrator 15.1.0, SVG Export Plug-In . SVG Version: 6.00 Build 0)  -->
<!DOCTYPE svg PUBLIC "-//W3C//DTD SVG 1.1//EN" "http://www.w3.org/Graphics/SVG/1.1/DTD/svg11.dtd">
<svg version="1.1" id="Calque_1" xmlns="http://www.w3.org/2000/svg" xmlns:xlink="http://www.w3.org/1999/xlink" x="0px" y="0px"
	 width="151.387px" height="30.379px" viewBox="0 0 151.387 30.379" enable-background="new 0 0 151.387 30.379"
	 xml:space="preserve">
<g>
	<polygon fill="#FFFFFF" points="2.523,19.551 4.415,13.455 13.174,5.606 19.411,2.453 22.705,3.293 25.895,6.657 27.26,12.894 
		20.672,21.443 12.964,26.559 8.97,26.979 5.216,25.157 2.523,21.864 	"/>
	<g>
		<path fill="#009FE3" d="M6.573,16.879L6.573,16.879c-0.002,0.003-0.004,0.004-0.006,0.007c-1.803,1.803-1.8,4.728,0.006,6.535
			c1.806,1.806,4.732,1.809,6.535,0.006c0.002-0.002,0.003-0.004,0.006-0.006v0l5.154-5.153l-6.541-6.541L6.573,16.879z"/>
		<path fill="#009FE3" d="M14.997,0C6.714,0,0,6.714,0,14.997c0,8.282,6.714,14.996,14.997,14.996
			c8.282,0,14.996-6.714,14.996-14.996C29.993,6.714,23.278,0,14.997,0z M24.219,13.9l-0.006,0.006v0L19.06,19.06l-5.153,5.153h0
			L13.9,24.219c-2.237,2.237-5.88,2.234-8.12-0.006c-2.241-2.24-2.243-5.883-0.006-8.12l0.006-0.006v0l5.153-5.153l5.153-5.153h0
			l0.006-0.006c2.237-2.237,5.88-2.234,8.12,0.006C26.453,8.02,26.456,11.663,24.219,13.9z"/>
	</g>
	<path fill="#009FE3" d="M6.566,16.886c-1.803,1.803-1.8,4.728,0.006,6.535c1.806,1.806,4.732,1.809,6.535,0.006
		c0.002-0.002,0.003-0.004,0.006-0.006v0l5.154-5.153l-6.541-6.541l-5.153,5.153v0.001C6.571,16.882,6.568,16.883,6.566,16.886z"/>
</g>
<g>
	<path fill="#3C3C3B" d="M35.781,24.455V6.79h4.422c2.932,0,5.161,0.731,6.689,2.193c1.527,1.461,2.291,3.593,2.291,6.393
		c0,2.693-0.819,4.88-2.458,6.559c-1.638,1.68-3.899,2.52-6.781,2.52H35.781z M37,7.911v15.435h2.771
		c2.62,0,4.632-0.679,6.036-2.039c1.404-1.359,2.106-3.32,2.106-5.882c0-5.009-2.632-7.514-7.896-7.514H37z"/>
	<path fill="#3C3C3B" d="M58.483,13.023c-0.378-0.271-0.821-0.406-1.331-0.406c-0.994,0-1.827,0.513-2.5,1.54
		c-0.673,1.027-1.01,2.484-1.01,4.373v5.925h-1.108V11.841h1.108v2.796h0.049c0.288-0.961,0.743-1.708,1.367-2.242
		s1.347-0.801,2.168-0.801c0.468,0,0.887,0.074,1.257,0.222V13.023z"/>
	<path fill="#3C3C3B" d="M69.188,24.455v-2.292h-0.049c-0.878,1.733-2.233,2.599-4.065,2.599c-2.981,0-4.471-1.876-4.471-5.629
		v-7.292h1.146v7.009c0,1.708,0.281,2.948,0.844,3.72c0.563,0.772,1.447,1.158,2.655,1.158c1.174,0,2.125-0.431,2.852-1.293
		c0.727-0.862,1.09-2.012,1.09-3.449v-7.145h1.133v12.614H69.188z"/>
	<path fill="#3C3C3B" d="M84.45,23.519c0,2.373-0.517,4.11-1.552,5.21c-1.035,1.101-2.645,1.651-4.829,1.651
		c-1.215,0-2.468-0.32-3.757-0.961v-1.183c1.331,0.739,2.591,1.109,3.782,1.109c3.482,0,5.223-1.84,5.223-5.519v-1.638h-0.049
		c-0.994,1.716-2.509,2.574-4.545,2.574c-1.552,0-2.819-0.562-3.8-1.688c-0.981-1.125-1.472-2.693-1.472-4.706
		c0-2.012,0.53-3.654,1.589-4.927c1.06-1.273,2.456-1.909,4.188-1.909c1.856,0,3.203,0.768,4.04,2.303h0.049v-1.995h1.133V23.519z
		 M83.316,16.682c0-1.117-0.375-2.082-1.127-2.895c-0.751-0.813-1.73-1.22-2.938-1.22c-1.388,0-2.504,0.521-3.351,1.564
		c-0.846,1.043-1.269,2.423-1.269,4.139c0,1.724,0.388,3.065,1.164,4.021c0.776,0.957,1.8,1.435,3.073,1.435
		c1.355,0,2.435-0.439,3.24-1.318c0.805-0.878,1.207-1.955,1.207-3.228V16.682z"/>
	<path fill="#009FE3" d="M100.242,24.455l-2.02-5.494H90.56l-2.02,5.494h-1.343L93.861,6.79h1.158l6.59,17.665H100.242z
		 M94.822,9.673c-0.09-0.247-0.164-0.489-0.222-0.727c-0.058-0.205-0.119-0.411-0.185-0.616h-0.049
		c-0.139,0.542-0.275,0.981-0.406,1.318l-2.969,8.191h6.812L94.822,9.673z"/>
	<path fill="#009FE3" d="M105.539,22.212h-0.049v2.242h-1.133V5.78h1.133v8.66h0.049c0.452-0.928,1.098-1.645,1.94-2.15
		c0.842-0.505,1.768-0.757,2.778-0.757c1.602,0,2.852,0.552,3.75,1.657c0.9,1.104,1.349,2.605,1.349,4.502
		c0,2.111-0.521,3.817-1.564,5.119c-1.043,1.302-2.398,1.952-4.065,1.952C107.838,24.762,106.442,23.913,105.539,22.212z
		 M105.489,17.519v1.589c0,1.265,0.398,2.351,1.195,3.258c0.796,0.908,1.844,1.361,3.141,1.361c1.289,0,2.336-0.552,3.141-1.657
		c0.805-1.104,1.207-2.556,1.207-4.354c0-1.577-0.369-2.829-1.108-3.757c-0.739-0.928-1.725-1.392-2.957-1.392
		c-1.47,0-2.607,0.493-3.412,1.478S105.489,16.189,105.489,17.519z"/>
	<path fill="#009FE3" d="M126.812,24.455v-2.292h-0.049c-0.879,1.733-2.234,2.599-4.065,2.599c-2.981,0-4.472-1.876-4.472-5.629
		v-7.292h1.146v7.009c0,1.708,0.281,2.948,0.844,3.72c0.563,0.772,1.448,1.158,2.655,1.158c1.174,0,2.125-0.431,2.852-1.293
		c0.727-0.862,1.09-2.012,1.09-3.449v-7.145h1.133v12.614H126.812z"/>
	<path fill="#009FE3" d="M131.333,23.9v-1.367c0.427,0.37,0.944,0.661,1.552,0.875s1.133,0.32,1.577,0.32
		c1.979,0,2.969-0.809,2.969-2.426c0-0.559-0.218-1.035-0.653-1.429c-0.436-0.394-1.142-0.801-2.119-1.22
		c-1.208-0.525-2.055-1.07-2.544-1.632c-0.489-0.563-0.733-1.246-0.733-2.051c0-1.026,0.392-1.855,1.176-2.488
		c0.784-0.632,1.751-0.948,2.901-0.948c1.084,0,2.012,0.222,2.784,0.665v1.281c-0.936-0.608-1.905-0.912-2.907-0.912
		c-0.829,0-1.499,0.216-2.008,0.646c-0.509,0.431-0.764,0.992-0.764,1.682c0,0.6,0.16,1.086,0.48,1.459
		c0.32,0.374,1.026,0.803,2.119,1.287c1.314,0.591,2.217,1.14,2.71,1.645c0.493,0.504,0.739,1.176,0.739,2.014
		c0,1.001-0.375,1.829-1.127,2.482c-0.751,0.653-1.788,0.979-3.11,0.979C133.16,24.762,132.146,24.475,131.333,23.9z"/>
	<path fill="#009FE3" d="M142.049,18.197c0,1.733,0.4,3.088,1.201,4.065c0.801,0.978,1.899,1.466,3.295,1.466
		c1.413,0,2.792-0.521,4.139-1.564v1.208c-1.306,0.928-2.764,1.392-4.373,1.392c-1.626,0-2.94-0.583-3.942-1.749
		c-1.002-1.167-1.503-2.813-1.503-4.939c0-1.839,0.524-3.39,1.571-4.65c1.047-1.26,2.408-1.891,4.083-1.891
		c1.568,0,2.771,0.55,3.609,1.65c0.837,1.101,1.256,2.603,1.256,4.508v0.505H142.049z M150.204,17.162
		c-0.049-1.454-0.398-2.583-1.047-3.388c-0.649-0.805-1.544-1.207-2.686-1.207c-1.183,0-2.162,0.396-2.938,1.188
		c-0.776,0.793-1.254,1.928-1.435,3.406H150.204z"/>
</g>
</svg>
